<?xml version="1.0" standalone="no"?>
<!DOCTYPE svg PUBLIC "-//W3C//DTD SVG 20010904//EN"
 "http://www.w3.org/TR/2001/REC-SVG-20010904/DTD/svg10.dtd">
<svg version="1.0" xmlns="http://www.w3.org/2000/svg"
 width="1280.000000pt" height="796.000000pt" viewBox="0 0 1280.000000 796.000000"
 preserveAspectRatio="xMidYMid meet">
<metadata>
Created by potrace 1.15, written by Peter Selinger 2001-2017
</metadata>
<g transform="translate(0.000000,796.000000) scale(0.100000,-0.100000)"
fill="#000000" stroke="none">
<path d="M6336 7940 c-48 -17 -531 -134 -1371 -330 -66 -16 -520 -123 -1010
-239 -2077 -490 -2752 -649 -3293 -777 -315 -74 -584 -139 -597 -144 -32 -12
-56 -50 -62 -99 -8 -55 15 -87 85 -118 92 -41 877 -380 1907 -823 374 -161
683 -296 687 -299 3 -3 -10 -33 -29 -66 -201 -337 -365 -785 -439 -1192 -19
-107 -14 -150 23 -187 42 -43 62 -42 226 7 754 228 1394 270 2073 136 179 -35
350 -81 683 -183 263 -82 434 -122 661 -158 128 -20 183 -22 475 -22 371 -1
403 2 925 84 626 97 698 105 1055 104 241 0 317 -4 451 -22 423 -57 848 -176
1289 -362 147 -62 183 -64 231 -16 42 42 43 58 9 243 -51 271 -146 614 -246
879 -27 72 -49 133 -49 137 0 3 14 8 31 12 28 6 37 0 123 -83 175 -169 416
-329 728 -481 166 -81 178 -88 193 -124 20 -50 19 -102 -5 -178 -47 -154 -185
-290 -432 -429 -124 -70 -196 -163 -342 -440 -102 -193 -178 -309 -386 -590
-278 -376 -420 -599 -566 -890 -139 -279 -274 -617 -370 -928 l-38 -123 23
-44 c58 -109 250 -188 461 -189 101 -1 125 2 198 28 139 47 151 68 152 269 0
69 4 106 10 102 6 -3 10 -26 10 -51 0 -69 20 -186 36 -211 32 -50 136 -49 184
2 22 23 23 31 19 118 -8 173 -3 422 10 540 7 65 15 116 18 114 2 -3 15 -47 29
-98 50 -190 168 -464 231 -540 21 -25 32 -29 75 -29 44 0 54 4 84 34 46 46 45
84 -7 200 -102 225 -150 432 -150 644 0 261 53 441 251 862 195 415 246 572
266 823 l6 88 67 43 c217 140 410 346 495 527 69 146 85 295 46 420 -39 124
-111 192 -320 305 -69 36 -183 98 -255 137 -71 38 -163 92 -205 119 -91 60
-212 149 -208 153 3 3 194 48 1068 256 877 208 1178 280 1198 289 45 19 68
123 37 166 -14 22 -40 33 -515 234 -146 62 -519 220 -830 352 -311 133 -653
278 -760 323 -107 46 -332 141 -500 213 -414 176 -1294 551 -1865 794 -652
278 -1219 513 -1420 591 -349 133 -451 155 -559 117z m-319 -1536 c-3 -3 -12
-4 -19 -1 -8 3 -5 6 6 6 11 1 17 -2 13 -5z m126 -11 c-7 -2 -21 -2 -30 0 -10
3 -4 5 12 5 17 0 24 -2 18 -5z m180 -10 c-7 -2 -19 -2 -25 0 -7 3 -2 5 12 5
14 0 19 -2 13 -5z m100 -10 c-7 -2 -19 -2 -25 0 -7 3 -2 5 12 5 14 0 19 -2 13
-5z m144 -9 c-3 -3 -12 -4 -19 -1 -8 3 -5 6 6 6 11 1 17 -2 13 -5z m-2484
-124 c-51 -10 -97 -21 -103 -25 -5 -3 -10 -4 -10 -1 0 11 46 29 94 36 99 14
110 8 19 -10z m-193 -74 c0 -2 -25 -20 -55 -40 -30 -20 -55 -34 -55 -31 0 4
101 75 107 75 2 0 3 -2 3 -4z m5268 -289 c23 -11 41 -21 39 -23 -2 -2 -33 9
-68 26 -35 17 -53 28 -39 24 14 -4 44 -16 68 -27z"/>
</g>
</svg>
